<?xml version="1.0" encoding="UTF-8" standalone="no"?>
<!-- Created with Inkscape (http://www.inkscape.org/) -->

<svg
   xmlns:dc="http://purl.org/dc/elements/1.1/"
   xmlns:cc="http://creativecommons.org/ns#"
   xmlns:rdf="http://www.w3.org/1999/02/22-rdf-syntax-ns#"
   xmlns:svg="http://www.w3.org/2000/svg"
   xmlns="http://www.w3.org/2000/svg"
   xmlns:sodipodi="http://sodipodi.sourceforge.net/DTD/sodipodi-0.dtd"
   xmlns:inkscape="http://www.inkscape.org/namespaces/inkscape"
   width="510mm"
   height="280mm"
   viewBox="0 0 510 280"
   version="1.1"
   id="svg8"
   inkscape:version="0.92.5 (2060ec1f9f, 2020-04-08)"
   sodipodi:docname="logo2.svg"
   inkscape:export-filename="/home/erik/workspace/mys/package-log/doc/images/logo.png"
   inkscape:export-xdpi="7.4385715"
   inkscape:export-ydpi="7.4385715">
  <defs
     id="defs2" />
  <sodipodi:namedview
     id="base"
     pagecolor="#ffffff"
     bordercolor="#666666"
     borderopacity="1.0"
     inkscape:pageopacity="0.0"
     inkscape:pageshadow="2"
     inkscape:zoom="0.35381536"
     inkscape:cx="781.67073"
     inkscape:cy="850.9079"
     inkscape:document-units="mm"
     inkscape:current-layer="layer1"
     showgrid="true"
     inkscape:snap-page="false"
     inkscape:snap-grids="false"
     inkscape:snap-to-guides="true"
     inkscape:window-width="1920"
     inkscape:window-height="1031"
     inkscape:window-x="0"
     inkscape:window-y="25"
     inkscape:window-maximized="1"
     fit-margin-top="0"
     fit-margin-left="0"
     fit-margin-right="0"
     fit-margin-bottom="0">
    <inkscape:grid
       type="xygrid"
       id="grid1066"
       originx="0"
       originy="0" />
  </sodipodi:namedview>
  <metadata
     id="metadata5">
    <rdf:RDF>
      <cc:Work
         rdf:about="">
        <dc:format>image/svg+xml</dc:format>
        <dc:type
           rdf:resource="http://purl.org/dc/dcmitype/StillImage" />
        <dc:title></dc:title>
      </cc:Work>
    </rdf:RDF>
  </metadata>
  <g
     inkscape:label="Layer 1"
     inkscape:groupmode="layer"
     id="layer1"
     transform="translate(0,-17)">
    <rect
       style="fill:#faffff;fill-opacity:1;stroke:none;stroke-width:31.09778976;stroke-linecap:round;stroke-linejoin:miter;stroke-miterlimit:4;stroke-dasharray:none;stroke-opacity:1;paint-order:normal"
       id="rect815-1-8"
       width="40.307919"
       height="40"
       x="186.34991"
       y="17"
       inkscape:export-xdpi="9.6981821"
       inkscape:export-ydpi="9.6981821"
       inkscape:export-filename="/home/erik/workspace/mys/package-log/doc/images/logo.png" />
    <rect
       style="fill:#faffff;fill-opacity:1;stroke:none;stroke-width:36.32584381;stroke-linecap:round;stroke-linejoin:miter;stroke-miterlimit:4;stroke-dasharray:none;stroke-opacity:1;paint-order:normal"
       id="rect815-1-8-5"
       width="55"
       height="40"
       x="337.00259"
       y="17"
       inkscape:export-xdpi="9.6981821"
       inkscape:export-ydpi="9.6981821"
       inkscape:export-filename="/home/erik/workspace/mys/package-log/doc/images/logo.png" />
    <rect
       style="fill:#ffffff;fill-opacity:1;stroke:none;stroke-width:32.52166748;stroke-linecap:round;stroke-linejoin:miter;stroke-miterlimit:4;stroke-dasharray:none;stroke-opacity:1;paint-order:normal"
       id="rect815-1-8-5-9-8"
       width="44.083576"
       height="40"
       x="161.34991"
       y="77"
       inkscape:export-xdpi="9.6981821"
       inkscape:export-ydpi="9.6981821"
       inkscape:export-filename="/home/erik/workspace/mys/package-log/doc/images/logo.png" />
    <rect
       style="fill:#ffffff;fill-opacity:1;stroke:none;stroke-width:33.32571411;stroke-linecap:round;stroke-linejoin:miter;stroke-miterlimit:4;stroke-dasharray:none;stroke-opacity:1;paint-order:normal"
       id="rect815-1-8-3-8"
       width="46.290321"
       height="40"
       x="241.76781"
       y="137"
       inkscape:export-xdpi="9.6981821"
       inkscape:export-ydpi="9.6981821"
       inkscape:export-filename="/home/erik/workspace/mys/package-log/doc/images/logo.png" />
    <rect
       style="fill:#ffffff;fill-opacity:1;stroke:none;stroke-width:30.99581337;stroke-linecap:round;stroke-linejoin:miter;stroke-miterlimit:4;stroke-dasharray:none;stroke-opacity:1;paint-order:normal"
       id="rect815-1-8-5-8-9"
       width="40.043987"
       height="40"
       x="186.34991"
       y="137"
       inkscape:export-xdpi="9.6981821"
       inkscape:export-ydpi="9.6981821"
       inkscape:export-filename="/home/erik/workspace/mys/package-log/doc/images/logo.png" />
    <rect
       style="fill:#ffffff;fill-opacity:1;stroke:none;stroke-width:36.32584381;stroke-linecap:round;stroke-linejoin:miter;stroke-miterlimit:4;stroke-dasharray:none;stroke-opacity:1;paint-order:normal"
       id="rect815-1-5-1-3"
       width="55"
       height="40"
       x="75"
       y="197"
       inkscape:export-xdpi="9.6981821"
       inkscape:export-ydpi="9.6981821"
       inkscape:export-filename="/home/erik/workspace/mys/package-log/doc/images/logo.png" />
    <rect
       style="fill:#ffffff;fill-opacity:1;stroke:none;stroke-width:38.30330276;stroke-linecap:round;stroke-linejoin:miter;stroke-miterlimit:4;stroke-dasharray:none;stroke-opacity:1;paint-order:normal"
       id="rect815-1-8-3-8-3"
       width="61.151028"
       height="40"
       x="181.34991"
       y="197"
       inkscape:export-xdpi="9.6981821"
       inkscape:export-ydpi="9.6981821"
       inkscape:export-filename="/home/erik/workspace/mys/package-log/doc/images/logo.png" />
    <rect
       style="fill:#ffffff;fill-opacity:1;stroke:none;stroke-width:26.63760185;stroke-linecap:round;stroke-linejoin:miter;stroke-miterlimit:4;stroke-dasharray:none;stroke-opacity:1;paint-order:normal"
       id="rect815-1-8-5-8-9-3"
       width="29.57478"
       height="40"
       x="258.62283"
       y="197"
       inkscape:export-xdpi="9.6981821"
       inkscape:export-ydpi="9.6981821"
       inkscape:export-filename="/home/erik/workspace/mys/package-log/doc/images/logo.png" />
    <rect
       style="fill:#ffffff;fill-opacity:1;stroke:none;stroke-width:22.63588142;stroke-linecap:round;stroke-linejoin:miter;stroke-miterlimit:4;stroke-dasharray:none;stroke-opacity:1;paint-order:normal"
       id="rect815-1-8-5-8-9-9"
       width="21.356304"
       height="40"
       x="125"
       y="77"
       inkscape:export-xdpi="9.6981821"
       inkscape:export-ydpi="9.6981821"
       inkscape:export-filename="/home/erik/workspace/mys/package-log/doc/images/logo.png" />
    <rect
       style="fill:#ff0000;fill-opacity:1;stroke:none;stroke-width:25.50068855;stroke-linecap:round;stroke-linejoin:miter;stroke-miterlimit:4;stroke-dasharray:none;stroke-opacity:1;paint-order:normal"
       id="rect815-1-8-5-8-9-9-7"
       width="27.104105"
       height="40"
       x="145"
       y="17"
       inkscape:export-xdpi="9.6981821"
       inkscape:export-ydpi="9.6981821"
       inkscape:export-filename="/home/erik/workspace/mys/package-log/doc/images/logo.png" />
    <rect
       style="fill:#f1e111;fill-opacity:1;stroke:none;stroke-width:24.60552406;stroke-linecap:round;stroke-linejoin:miter;stroke-miterlimit:4;stroke-dasharray:none;stroke-opacity:1;paint-order:normal"
       id="rect815-1-8-5-8-9-9-7-7"
       width="25.234604"
       height="40"
       x="145"
       y="137"
       inkscape:export-xdpi="9.6981821"
       inkscape:export-ydpi="9.6981821"
       inkscape:export-filename="/home/erik/workspace/mys/package-log/doc/images/logo.png" />
    <rect
       style="fill:#ffffff;fill-opacity:1;stroke:none;stroke-width:23.4150753;stroke-linecap:round;stroke-linejoin:miter;stroke-miterlimit:4;stroke-dasharray:none;stroke-opacity:1;paint-order:normal"
       id="rect815-1-8-5-8-9-9-7-7-6"
       width="22.851906"
       height="40"
       x="145"
       y="197"
       inkscape:export-xdpi="9.6981821"
       inkscape:export-ydpi="9.6981821"
       inkscape:export-filename="/home/erik/workspace/mys/package-log/doc/images/logo.png" />
    <rect
       style="fill:#ffffff;fill-opacity:1;stroke:none;stroke-width:37.9411087;stroke-linecap:round;stroke-linejoin:miter;stroke-miterlimit:4;stroke-dasharray:none;stroke-opacity:1;paint-order:normal"
       id="rect815-2"
       width="60"
       height="40"
       x="0"
       y="197"
       inkscape:export-xdpi="9.6981821"
       inkscape:export-ydpi="9.6981821"
       inkscape:export-filename="/home/erik/workspace/mys/package-log/doc/images/logo.png" />
    <rect
       style="fill:#ffffff;fill-opacity:1;stroke:none;stroke-width:37.9411087;stroke-linecap:round;stroke-linejoin:miter;stroke-miterlimit:4;stroke-dasharray:none;stroke-opacity:1;paint-order:normal"
       id="rect815-5"
       width="60"
       height="40"
       x="0"
       y="137"
       inkscape:export-xdpi="9.6981821"
       inkscape:export-ydpi="9.6981821"
       inkscape:export-filename="/home/erik/workspace/mys/package-log/doc/images/logo.png" />
    <rect
       style="fill:#ffffff;fill-opacity:1;stroke:none;stroke-width:37.9411087;stroke-linecap:round;stroke-linejoin:miter;stroke-miterlimit:4;stroke-dasharray:none;stroke-opacity:1;paint-order:normal"
       id="rect815-4"
       width="60"
       height="40"
       x="0"
       y="77"
       inkscape:export-xdpi="9.6981821"
       inkscape:export-ydpi="9.6981821"
       inkscape:export-filename="/home/erik/workspace/mys/package-log/doc/images/logo.png" />
    <rect
       style="fill:#ffffff;fill-opacity:1;stroke:none;stroke-width:37.9411087;stroke-linecap:round;stroke-linejoin:miter;stroke-miterlimit:4;stroke-dasharray:none;stroke-opacity:1;paint-order:normal"
       id="rect815-0"
       width="60"
       height="40"
       x="0"
       y="17"
       inkscape:export-xdpi="9.6981821"
       inkscape:export-ydpi="9.6981821"
       inkscape:export-filename="/home/erik/workspace/mys/package-log/doc/images/logo.png" />
    <rect
       style="fill:#ffffff;fill-opacity:1;stroke:none;stroke-width:36.32584381;stroke-linecap:round;stroke-linejoin:miter;stroke-miterlimit:4;stroke-dasharray:none;stroke-opacity:1;paint-order:normal"
       id="rect815-1-5-1-3-5"
       width="55.000004"
       height="40"
       x="75"
       y="137"
       inkscape:export-xdpi="9.6981821"
       inkscape:export-ydpi="9.6981821"
       inkscape:export-filename="/home/erik/workspace/mys/package-log/doc/images/logo.png" />
    <rect
       style="fill:#ffffff;fill-opacity:1;stroke:none;stroke-width:36.32584381;stroke-linecap:round;stroke-linejoin:miter;stroke-miterlimit:4;stroke-dasharray:none;stroke-opacity:1;paint-order:normal"
       id="rect815-1-5-1-3-5-9"
       width="55.000008"
       height="40"
       x="75"
       y="17"
       inkscape:export-xdpi="9.6981821"
       inkscape:export-ydpi="9.6981821"
       inkscape:export-filename="/home/erik/workspace/mys/package-log/doc/images/logo.png" />
    <rect
       style="fill:#ffffff;fill-opacity:1;stroke:none;stroke-width:28.97799683;stroke-linecap:round;stroke-linejoin:miter;stroke-miterlimit:4;stroke-dasharray:none;stroke-opacity:1;paint-order:normal"
       id="rect815-1-5-1-3-0-4"
       width="35"
       height="40"
       x="75"
       y="77"
       inkscape:export-xdpi="9.6981821"
       inkscape:export-ydpi="9.6981821"
       inkscape:export-filename="/home/erik/workspace/mys/package-log/doc/images/logo.png" />
    <rect
       style="fill:#faffff;fill-opacity:1;stroke:none;stroke-width:25.90445518;stroke-linecap:round;stroke-linejoin:miter;stroke-miterlimit:4;stroke-dasharray:none;stroke-opacity:1;paint-order:normal"
       id="rect815-1-8-6"
       width="27.96921"
       height="40"
       x="238.95894"
       y="17"
       inkscape:export-xdpi="9.6981821"
       inkscape:export-ydpi="9.6981821"
       inkscape:export-filename="/home/erik/workspace/mys/package-log/doc/images/logo.png" />
    <rect
       style="fill:#faffff;fill-opacity:1;stroke:none;stroke-width:32.23101044;stroke-linecap:round;stroke-linejoin:miter;stroke-miterlimit:4;stroke-dasharray:none;stroke-opacity:1;paint-order:normal"
       id="rect815-1-8-6-9"
       width="43.299122"
       height="40"
       x="280.46188"
       y="17"
       inkscape:export-xdpi="9.6981821"
       inkscape:export-ydpi="9.6981821"
       inkscape:export-filename="/home/erik/workspace/mys/package-log/doc/images/logo.png" />
    <rect
       style="fill:#ffffff;fill-opacity:1;stroke:none;stroke-width:26.75619698;stroke-linecap:round;stroke-linejoin:miter;stroke-miterlimit:4;stroke-dasharray:none;stroke-opacity:1;paint-order:normal"
       id="rect815-1-8-3-8-2"
       width="29.838709"
       height="40"
       x="303.26978"
       y="137"
       inkscape:export-xdpi="9.6981821"
       inkscape:export-ydpi="9.6981821"
       inkscape:export-filename="/home/erik/workspace/mys/package-log/doc/images/logo.png" />
    <rect
       style="fill:#ffffff;fill-opacity:1;stroke:none;stroke-width:26.63760185;stroke-linecap:round;stroke-linejoin:miter;stroke-miterlimit:4;stroke-dasharray:none;stroke-opacity:1;paint-order:normal"
       id="rect815-1-8-5-8-9-3-4"
       width="29.574778"
       height="40"
       x="303.02786"
       y="197"
       inkscape:export-xdpi="9.6981821"
       inkscape:export-ydpi="9.6981821"
       inkscape:export-filename="/home/erik/workspace/mys/package-log/doc/images/logo.png" />
    <rect
       style="fill:#ffffff;fill-opacity:1;stroke:none;stroke-width:26.63760185;stroke-linecap:round;stroke-linejoin:miter;stroke-miterlimit:4;stroke-dasharray:none;stroke-opacity:1;paint-order:normal"
       id="rect815-1-8-5-8-9-3-4-7"
       width="29.574778"
       height="40"
       x="348.26978"
       y="137"
       inkscape:export-xdpi="9.6981821"
       inkscape:export-ydpi="9.6981821"
       inkscape:export-filename="/home/erik/workspace/mys/package-log/doc/images/logo.png" />
    <path
       inkscape:connector-curvature="0"
       d="m 334.89477,126.5943 c -5.4e-4,-5.4e-4 -9.6e-4,-9.6e-4 -9.6e-4,-9.6e-4 -0.28902,-0.32621 -0.4267,-0.93098 -0.57474,-1.5753 -0.14769,-0.64383 -0.31288,-1.33816 -0.84146,-1.78817 -9.6e-4,-9.6e-4 -0.002,-0.002 -0.003,-0.003 -0.10478,-0.0915 -0.21239,-0.16854 -0.32049,-0.23287 -0.10852,-0.0643 -0.21857,-0.1167 -0.32853,-0.15811 0.73478,-2.17914 0.44668,-4.34917 -0.29526,-6.30977 -0.91003,-2.40677 -2.49914,-4.50346 -3.713,-5.93782 -1.35863,-1.71387 -2.6873,-3.34061 -2.66106,-5.74359 0.0405,-3.6673 0.40329,-10.468071 -6.05029,-10.477119 -0.26239,-4.67e-4 -0.53621,0.01044 -0.82146,0.03334 -7.21171,0.580502 -5.29878,8.199869 -5.40592,10.750949 -0.13191,1.86579 -0.51003,3.33634 -1.79341,5.16023 -1.5072,1.79245 -3.63015,4.694 -4.63543,7.7146 -0.4743,1.42529 -0.70003,2.87817 -0.49192,4.25346 -0.0652,0.0586 -0.12715,0.12006 -0.18667,0.1829 -0.4424,0.47287 -0.76956,1.04523 -1.13385,1.43049 -0.3405,0.34006 -0.82527,0.46912 -1.35864,0.66004 -0.53334,0.19148 -1.11862,0.47335 -1.47386,1.15528 0,0 0,5.3e-4 -5.4e-4,5.3e-4 -5.4e-4,6.1e-4 -6.1e-4,0.002 -0.002,0.003 -0.16715,0.31192 -0.22144,0.64859 -0.22144,0.99004 0,0.31573 0.0466,0.63579 0.0938,0.94385 0.0981,0.64098 0.19764,1.24713 0.0658,1.65767 -0.4219,1.15386 -0.47622,1.95151 -0.17906,2.53064 0.29812,0.58002 0.91005,0.83573 1.60197,0.98052 1.38388,0.28856 3.25775,0.21713 4.73448,1.00003 l 0.12716,-0.23953 -0.12574,0.24 c 1.58103,0.8267 3.18395,1.12009 4.46258,0.82813 0.92765,-0.21138 1.68006,-0.76378 2.06673,-1.61339 1.00005,-0.005 2.09771,-0.4286 3.85587,-0.52522 1.19292,-0.0962 2.68298,0.42378 4.39685,0.32854 0.0447,0.18572 0.10961,0.36477 0.1981,0.53478 9.7e-4,9.6e-4 0.002,0.003 0.003,0.005 0.66426,1.32862 1.89859,1.93627 3.2144,1.83245 1.31715,-0.10384 2.71768,-0.8805 3.85016,-2.2277 l -0.20763,-0.17429 0.2091,0.17238 c 1.07911,-1.30862 2.87012,-1.85101 4.05826,-2.56724 0.59385,-0.35811 1.07528,-0.80665 1.11291,-1.45815 0.037,-0.65098 -0.34535,-1.38053 -1.22444,-2.3563 z"
       id="path3"
       style="fill:#000000;fill-opacity:1;stroke-width:0.04762093"
       inkscape:export-xdpi="9.6981821"
       inkscape:export-ydpi="9.6981821"
       inkscape:export-filename="/home/erik/workspace/mys/package-log/doc/images/logo.png" />
    <path
       inkscape:connector-curvature="0"
       d="m 335.57718,128.91962 c -0.0229,0.40188 -0.31383,0.70051 -0.85147,1.02433 -1.07438,0.64813 -2.97873,1.21195 -4.19445,2.68487 -1.05628,1.25673 -2.34396,1.94674 -3.47775,2.03627 -1.13382,0.0895 -2.112,-0.38097 -2.68916,-1.53863 l -9.7e-4,-0.002 -9.6e-4,-0.003 c -0.35815,-0.68098 -0.2091,-1.75483 0.0924,-2.88816 0.30145,-1.1329 0.7348,-2.29676 0.7929,-3.24204 v -0.003 c 0.0609,-1.21143 0.12905,-2.26961 0.33235,-3.08631 0.20381,-0.81669 0.5243,-1.36911 1.09199,-1.68007 0.0267,-0.0143 0.0529,-0.0282 0.0789,-0.041 0.0643,1.0491 0.58387,2.11966 1.50196,2.35106 1.00486,0.26481 2.45301,-0.59717 3.06445,-1.30052 0.12235,-0.005 0.2414,-0.0109 0.35716,-0.0139 0.53669,-0.013 0.98624,0.0181 1.44625,0.42001 l 9.6e-4,9.6e-4 9.6e-4,9.7e-4 c 0.35335,0.29952 0.52146,0.86527 0.66717,1.49864 0.14577,0.63386 0.26192,1.32385 0.69912,1.81577 l 5.5e-4,5.4e-4 5.4e-4,9.7e-4 c 0.84008,0.93193 1.11009,1.56148 1.08676,1.96389 z"
       id="path5"
       style="fill:#f7b259;fill-opacity:1;stroke-width:0.04762093"
       inkscape:export-xdpi="9.6981821"
       inkscape:export-ydpi="9.6981821"
       inkscape:export-filename="/home/erik/workspace/mys/package-log/doc/images/logo.png" />
    <path
       inkscape:connector-curvature="0"
       d="m 315.15968,131.89022 -5.2e-4,0.003 v 0.003 c -0.0971,1.2734 -0.81528,1.96676 -1.91819,2.21866 -1.10193,0.25192 -2.59675,9.7e-4 -4.08919,-0.77955 -5.4e-4,0 -6.2e-4,-5.3e-4 -9.6e-4,-5.3e-4 -1.6515,-0.8748 -3.61586,-0.78767 -4.87639,-1.051 -0.63002,-0.13144 -1.04146,-0.32953 -1.23005,-0.69717 -0.18858,-0.36811 -0.19287,-1.00958 0.20809,-2.10342 l 0.002,-0.005 9.6e-4,-0.005 c 0.19857,-0.61193 0.0515,-1.28148 -0.0446,-1.91008 -0.0961,-0.62808 -0.14334,-1.20001 0.0714,-1.59815 l 0.002,-0.003 c 0.27477,-0.52955 0.67764,-0.71909 1.17766,-0.89815 0.5005,-0.17952 1.09338,-0.32043 1.56149,-0.79002 l 0.003,-0.002 0.002,-0.002 c 0.43286,-0.45669 0.75812,-1.02957 1.13861,-1.43577 0.32096,-0.34288 0.64241,-0.57003 1.12671,-0.57335 0.007,5.3e-4 0.0109,5.3e-4 0.0165,0 0.0848,5.3e-4 0.17475,0.008 0.27001,0.0223 0.64289,0.0971 1.20337,0.54663 1.74339,1.27904 l 1.55913,2.84155 5.2e-4,9.6e-4 6.1e-4,6.3e-4 c 0.41478,0.86621 1.29101,1.81911 2.03342,2.79106 0.74241,0.9715 1.31672,1.94727 1.24195,2.69396 z"
       id="path7"
       style="fill:#f7b259;fill-opacity:1;stroke-width:0.04762093"
       inkscape:export-xdpi="9.6981821"
       inkscape:export-ydpi="9.6981821"
       inkscape:export-filename="/home/erik/workspace/mys/package-log/doc/images/logo.png" />
    <path
       inkscape:connector-curvature="0"
       d="m 322.93524,105.40057 c -0.12525,-0.24526 -0.38096,-0.4786 -0.81622,-0.65717 l -6.2e-4,-4.7e-4 -9.6e-4,-4.7e-4 c -0.90527,-0.38764 -1.29814,-0.41526 -1.8034,-0.74384 -0.82241,-0.5286 -1.50197,-0.71386 -2.06675,-0.71147 -0.29573,9.6e-4 -0.56002,0.0533 -0.7967,0.13524 -0.68812,0.23668 -1.14481,0.73052 -1.43101,1.00148 l -5.4e-4,4.8e-4 c 0,4.5e-4 -5.4e-4,4.5e-4 -5.4e-4,9.6e-4 -0.0561,0.0533 -0.12857,0.10194 -0.30382,0.23048 -0.17668,0.12905 -0.44145,0.32334 -0.82241,0.60907 -0.33858,0.25382 -0.44859,0.5843 -0.33144,0.97147 0.1167,0.38716 0.49001,0.83385 1.1729,1.22006 l 6e-4,9.6e-4 9.7e-4,4.6e-4 c 0.42382,0.24907 0.71336,0.58479 1.04575,0.85196 0.16619,0.13333 0.34097,0.25237 0.55144,0.34239 0.21049,0.0901 0.45622,0.15096 0.76384,0.16905 0.72194,0.0419 1.25339,-0.17477 1.72245,-0.44335 0.47003,-0.26812 0.86809,-0.59622 1.32483,-0.74433 l 5.9e-4,-4.6e-4 9.7e-4,-4.7e-4 c 0.93618,-0.2924 1.60387,-0.88147 1.81288,-1.44101 0.1048,-0.28 0.10142,-0.54574 -0.0233,-0.79099 z"
       id="path9"
       style="fill:#f7b259;fill-opacity:1;stroke-width:0.04762093"
       inkscape:export-xdpi="9.6981821"
       inkscape:export-ydpi="9.6981821"
       inkscape:export-filename="/home/erik/workspace/mys/package-log/doc/images/logo.png" />
    <path
       d="m 320.55991,106.78253 c -0.74482,0.38824 -1.61483,0.85909 -2.54057,0.85909 -0.92528,0 -1.65627,-0.42764 -2.18199,-0.84432 -0.26287,-0.2081 -0.47622,-0.41525 -0.63718,-0.56574 -0.27926,-0.22043 -0.24581,-0.52963 -0.13108,-0.52051 0.19233,0.0241 0.22141,0.27724 0.34252,0.3905 0.16381,0.15335 0.36907,0.35192 0.61763,0.54907 0.49717,0.39383 1.16006,0.77718 1.9901,0.77718 0.82859,0 1.79586,-0.48645 2.38628,-0.81765 0.33448,-0.18764 0.76013,-0.52398 1.1075,-0.77898 0.26576,-0.19506 0.25606,-0.42998 0.4755,-0.4044 0.21943,0.0256 0.0571,0.26001 -0.25019,0.52821 -0.3073,0.26818 -0.78805,0.62402 -1.17852,0.82755 z"
       id="path11"
       inkscape:connector-curvature="0"
       style="fill:#00000d;fill-opacity:1;stroke-width:0.04762093"
       sodipodi:nodetypes="sscccccssszzs"
       inkscape:export-xdpi="9.6981821"
       inkscape:export-ydpi="9.6981821"
       inkscape:export-filename="/home/erik/workspace/mys/package-log/doc/images/logo.png" />
    <path
       inkscape:connector-curvature="0"
       d="m 331.96512,122.67653 c -0.10332,-0.003 -0.20524,-0.003 -0.30429,-6.2e-4 -0.01,5.4e-4 -0.0181,5.4e-4 -0.0276,5.4e-4 0.25572,-0.80764 -0.31001,-1.40338 -1.81769,-2.08531 -1.56339,-0.6876 -2.80916,-0.61954 -3.01964,0.77574 -0.0133,0.0728 -0.0242,0.14764 -0.0323,0.22287 -0.11717,0.041 -0.23429,0.0925 -0.3524,0.15666 -0.73383,0.40194 -1.1348,1.13054 -1.35768,2.0249 -0.22239,0.89338 -0.28666,1.97293 -0.34762,3.18679 0,5.4e-4 0,5.4e-4 0,6.1e-4 -0.0376,0.61006 -0.28905,1.43576 -0.54336,2.31014 -2.56105,1.82717 -6.11548,2.61862 -9.13369,0.55855 -0.20429,-0.32334 -0.43906,-0.64384 -0.6805,-0.96004 -0.15429,-0.20187 -0.31288,-0.40239 -0.47002,-0.60046 0.30954,5.5e-4 0.57288,-0.0505 0.78574,-0.14667 0.26478,-0.12049 0.4505,-0.31287 0.54288,-0.56055 0.18381,-0.49478 -6.1e-4,-1.1929 -0.59002,-1.99056 -0.58907,-0.79715 -1.58673,-1.69672 -3.0525,-2.59581 0,0 0,0 0,-5.5e-4 -1.07718,-0.67001 -1.67913,-1.49104 -1.96104,-2.38246 -0.28239,-0.89193 -0.24287,-1.85626 -0.0252,-2.80821 0.41716,-1.82722 1.48862,-3.60443 2.17245,-4.71971 0.18382,-0.13524 0.0658,0.25145 -0.69239,1.65911 -0.67908,1.28677 -1.94914,4.25636 -0.2105,6.5746 0.0466,-1.64965 0.4405,-3.33209 1.10195,-4.90597 0.96338,-2.18341 2.97822,-5.97072 3.13823,-8.98894 0.0829,0.06 0.3662,0.25143 0.4924,0.32333 5.5e-4,4.8e-4 5.5e-4,4.8e-4 6e-4,4.8e-4 0.36954,0.21763 0.64718,0.53575 1.0067,0.82482 0.36051,0.28953 0.81052,0.53953 1.49054,0.57906 0.0652,0.003 0.12905,0.007 0.19145,0.007 0.70097,0 1.24766,-0.22858 1.70292,-0.48906 0.49483,-0.28286 0.89004,-0.59623 1.26485,-0.71813 5.5e-4,-4.7e-4 6.2e-4,-4.7e-4 9.7e-4,-4.7e-4 0.79194,-0.24762 1.42101,-0.68574 1.77907,-1.19625 0.61527,2.42488 2.0458,5.9274 2.96541,7.63652 0.48907,0.90671 1.46143,2.83345 1.8815,5.15498 0.2662,-0.009 0.55955,0.0306 0.87338,0.11092 1.09861,-2.8482 -0.93147,-5.91546 -1.86008,-6.76979 -0.37478,-0.36383 -0.39287,-0.52669 -0.20666,-0.51907 1.00669,0.89099 2.32908,2.68201 2.81009,4.70401 0.21949,0.92189 0.2662,1.89148 0.0309,2.8482 0.11478,0.0475 0.23191,0.0995 0.35049,0.15577 1.7634,0.85855 2.41533,1.60526 2.10198,2.62435 z"
       id="path13"
       style="opacity:1;fill:#ffffff;fill-opacity:0.9953271;stroke-width:0.04762093"
       inkscape:export-xdpi="9.6981821"
       inkscape:export-ydpi="9.6981821"
       inkscape:export-filename="/home/erik/workspace/mys/package-log/doc/images/logo.png" />
    <path
       d="m 323.0181,102.6071 c 0.003,0.4805 -0.0791,0.88956 -0.26144,1.30721 -0.10383,0.2381 -0.22329,0.43811 -0.36664,0.61145 -0.0487,-0.0233 -0.099,-0.0456 -0.15147,-0.0672 -0.18145,-0.0776 -0.34191,-0.14143 -0.48569,-0.19573 -0.14386,-0.0543 -0.25611,-0.0913 -0.37188,-0.13137 0.0839,-0.10142 0.24906,-0.22098 0.31054,-0.37097 0.0934,-0.22621 0.13906,-0.44717 0.14763,-0.71052 0,-0.0109 0.003,-0.0196 0.003,-0.0318 0.007,-0.2524 -0.0282,-0.46812 -0.10194,-0.68909 -0.0772,-0.23191 -0.1753,-0.39858 -0.31717,-0.53717 -0.14238,-0.13858 -0.28429,-0.20143 -0.45477,-0.20714 -0.009,-4.8e-4 -0.0157,-4.8e-4 -0.0239,-4.8e-4 -0.15999,4.8e-4 -0.29907,0.0558 -0.44292,0.17573 -0.15095,0.12619 -0.26287,0.28762 -0.35616,0.51241 -0.0929,0.22476 -0.13858,0.44764 -0.14767,0.7124 -9.6e-4,0.0109 -9.6e-4,0.0196 -9.6e-4,0.03 -0.003,0.14573 0.007,0.27907 0.0286,0.40859 -0.32764,-0.16334 -0.7468,-0.28244 -1.03633,-0.35148 -0.0165,-0.12526 -0.0262,-0.25431 -0.029,-0.38955 v -0.0367 c -0.007,-0.47906 0.0732,-0.89004 0.25762,-1.3072 0.18429,-0.41765 0.41239,-0.71766 0.73331,-0.96196 0.32145,-0.24381 0.63723,-0.35573 1.011,-0.35953 h 0.0175 c 0.36574,0 0.67861,0.10762 1.00006,0.34049 0.32619,0.23715 0.56144,0.53336 0.75096,0.94765 0.18574,0.40384 0.27526,0.79862 0.28436,1.26676 -6e-5,0.0123 -6e-5,0.0229 0.003,0.0352 z"
       id="path15"
       inkscape:connector-curvature="0"
       style="fill:#ffffff;stroke-width:0.04762093"
       sodipodi:nodetypes="ccccccccccccccccccccccccscccc"
       inkscape:export-xdpi="9.6981821"
       inkscape:export-ydpi="9.6981821"
       inkscape:export-filename="/home/erik/workspace/mys/package-log/doc/images/logo.png" />
    <path
       d="m 317.49026,103.0857 c -0.0481,0.0139 -0.0947,0.0285 -0.14097,0.0442 -0.2619,0.0905 -0.46986,0.19036 -0.67082,0.3232 0.0196,-0.13906 0.0224,-0.28001 0.008,-0.43764 -9.6e-4,-0.009 -9.6e-4,-0.0157 -9.6e-4,-0.0242 -0.0209,-0.20904 -0.0653,-0.38429 -0.13907,-0.56143 -0.0786,-0.1843 -0.16667,-0.31431 -0.28239,-0.41431 -0.10479,-0.0905 -0.2038,-0.13238 -0.31335,-0.13144 -0.0109,0 -0.0223,4.7e-4 -0.0338,0.001 -0.12286,0.0109 -0.22478,0.0704 -0.32145,0.1881 -0.0961,0.11719 -0.15953,0.26287 -0.20525,0.4562 -0.0456,0.19287 -0.0576,0.38241 -0.0386,0.60004 0,0.009 0.002,0.0157 0.002,0.0242 0.0209,0.21096 0.0633,0.38621 0.13857,0.56336 0.0772,0.1824 0.16668,0.31241 0.2824,0.41241 0.0196,0.0166 0.0386,0.0319 0.0576,0.0452 -0.12006,0.0929 -0.20064,0.15873 -0.29969,0.23111 -0.0633,0.0462 -0.13859,0.10141 -0.22622,0.16621 -0.19094,-0.17906 -0.34,-0.40384 -0.47049,-0.70053 -0.15428,-0.35048 -0.23666,-0.70145 -0.26142,-1.11575 v -0.003 c -0.0229,-0.41431 0.0177,-0.77052 0.13143,-1.1391 0.11429,-0.36859 0.26669,-0.63527 0.48811,-0.85434 0.22096,-0.21952 0.44384,-0.33001 0.71241,-0.34382 0.0209,-10e-4 0.0415,-10e-4 0.0619,-10e-4 0.24334,4.7e-4 0.46049,0.0814 0.68526,0.26097 0.24383,0.19477 0.4281,0.44383 0.5824,0.79481 0.15478,0.35096 0.23716,0.70193 0.26001,1.11625 v 0.003 c 0.0109,0.17382 0.01,0.33764 -0.005,0.49622 z"
       id="path17"
       inkscape:connector-curvature="0"
       style="fill:#ffffff;fill-opacity:1;stroke-width:0.04762093"
       sodipodi:nodetypes="cccccccccccccccccccccccccccccc"
       inkscape:export-xdpi="9.6981821"
       inkscape:export-ydpi="9.6981821"
       inkscape:export-filename="/home/erik/workspace/mys/package-log/doc/images/logo.png" />
    <path
       sodipodi:nodetypes="aaaaaaa"
       inkscape:connector-curvature="0"
       id="path28396-7"
       d="m 318.71205,104.07668 c 0.0308,0.0989 0.19015,0.0825 0.28222,0.12992 0.0807,0.0416 0.14577,0.13279 0.23659,0.13542 0.0867,0.002 0.2216,-0.03 0.23289,-0.11599 0.0148,-0.11357 -0.151,-0.18578 -0.25776,-0.2274 -0.13736,-0.0536 -0.31337,-0.0807 -0.44223,-0.01 -0.0294,0.0164 -0.0618,0.0549 -0.0517,0.0871 z"
       style="opacity:1;fill:#000008;fill-opacity:1;stroke:none;stroke-width:0.04762093"
       inkscape:export-xdpi="9.6981821"
       inkscape:export-ydpi="9.6981821"
       inkscape:export-filename="/home/erik/workspace/mys/package-log/doc/images/logo.png" />
    <path
       style="opacity:1;fill:#000008;fill-opacity:1;stroke:none;stroke-width:0.04762093"
       d="m 317.77086,104.07668 c -0.0308,0.0989 -0.19015,0.0825 -0.28221,0.12992 -0.0807,0.0416 -0.14577,0.13279 -0.23661,0.13542 -0.0867,0.002 -0.22161,-0.03 -0.23287,-0.11599 -0.0148,-0.11357 0.15098,-0.18578 0.25774,-0.2274 0.13737,-0.0536 0.31336,-0.0807 0.44225,-0.01 0.0295,0.0164 0.0618,0.0549 0.0518,0.0871 z"
       id="path5461"
       inkscape:connector-curvature="0"
       sodipodi:nodetypes="aaaaaaa"
       inkscape:export-xdpi="9.6981821"
       inkscape:export-ydpi="9.6981821"
       inkscape:export-filename="/home/erik/workspace/mys/package-log/doc/images/logo.png" />
  </g>
</svg>
